solid Edge-to-Cloud-Uploader
facet normal 2.1674022835407922e-17 1.2513502918444933e-17 -1.0
  outer loop
    vertex 69.18473537173575 118.3204920440968 3.999999999999999
    vertex 69.06909161854122 117.2916950320135 3.999999999999999
    vertex 69.05919164706287 117.81370593252437 3.999999999999999
  endloop
endfacet
facet normal 2.1674022835407922e-17 1.2513502918444933e-17 -1.0
  outer loop
    vertex 69.06909161854122 117.2916950320135 3.999999999999999
    vertex 69.18473537173575 118.3204920440968 3.999999999999999
    vertex 69.21376061947501 116.79003352277017 3.999999999999999
  endloop
endfacet
facet normal 2.1674022835407922e-17 1.2513502918444933e-17 -1.0
  outer loop
    vertex 69.21376061947501 116.79003352277017 3.999999999999999
    vertex 69.18473537173575 118.3204920440968 3.999999999999999
    vertex 69.4371671951942 118.77751673073081 3.999999999999999
  endloop
endfacet
facet normal 2.1674022835407922e-17 1.2513502918444933e-17 -1.0
  outer loop
    vertex 69.21376061947501 116.79003352277017 3.999999999999999
    vertex 69.4371671951942 118.77751673073081 3.999999999999999
    vertex 69.32913318819126 116.59867621311517 3.999999999999999
  endloop
endfacet
facet normal 2.1674022835407922e-17 1.2513502918444933e-17 -1.0
  outer loop
    vertex 69.32913318819126 116.59867621311517 3.999999999999999
    vertex 69.4371671951942 118.77751673073081 3.999999999999999
    vertex 69.48333969652744 116.34290880761453 3.999999999999999
  endloop
endfacet
facet normal 2.1674022835407922e-17 1.2513502918444933e-17 -1.0
  outer loop
    vertex 69.48333969652744 116.34290880761453 3.999999999999999
    vertex 69.4371671951942 118.77751673073081 3.999999999999999
    vertex 69.79928430583286 119.15363451530122 3.999999999999999
  endloop
endfacet
facet normal 2.1674022835407922e-17 1.2513502918444933e-17 -1.0
  outer loop
    vertex 69.48333969652744 116.34290880761453 3.999999999999999
    vertex 69.79928430583286 119.15363451530122 3.999999999999999
    vertex 69.85945748109785 115.98079169697588 3.999999999999999
  endloop
endfacet
facet normal 2.1674022835407922e-17 1.2513502918444933e-17 -1.0
  outer loop
    vertex 69.85945748109785 115.98079169697588 3.999999999999999
    vertex 69.79928430583286 119.15363451530122 3.999999999999999
    vertex 70.2464090209885 119.42321359235365 3.999999999999999
  endloop
endfacet
facet normal 2.1674022835407922e-17 1.2513502918444933e-17 -1.0
  outer loop
    vertex 69.85945748109785 115.98079169697588 3.999999999999999
    vertex 70.2464090209885 119.42321359235365 3.999999999999999
    vertex 70.31648216773183 115.72835987351743 3.999999999999999
  endloop
endfacet
facet normal 2.1674022835407922e-17 1.2513502918444933e-17 -1.0
  outer loop
    vertex 70.31648216773183 115.72835987351743 3.999999999999999
    vertex 70.2464090209885 119.42321359235365 3.999999999999999
    vertex 70.74807053023181 119.56788259328744 3.999999999999999
  endloop
endfacet
facet normal 2.1674022835407922e-17 1.2513502918444933e-17 -1.0
  outer loop
    vertex 70.31648216773183 115.72835987351743 3.999999999999999
    vertex 70.74807053023181 119.56788259328744 3.999999999999999
    vertex 70.82326827930429 115.60281614884455 3.999999999999999
  endloop
endfacet
facet normal 2.1674022835407922e-17 1.2513502918444933e-17 -1.0
  outer loop
    vertex 70.82326827930429 115.60281614884455 3.999999999999999
    vertex 70.74807053023181 119.56788259328744 3.999999999999999
    vertex 71.27008143074269 119.57778256476578 3.999999999999999
  endloop
endfacet
facet normal 2.1674022835407922e-17 1.2513502918444933e-17 -1.0
  outer loop
    vertex 70.82326827930429 115.60281614884455 3.999999999999999
    vertex 71.27008143074269 119.57778256476578 3.999999999999999
    vertex 71.34527917981517 115.6127161203229 3.999999999999999
  endloop
endfacet
facet normal 2.1674022835407922e-17 1.2513502918444933e-17 -1.0
  outer loop
    vertex 71.34527917981517 115.6127161203229 3.999999999999999
    vertex 71.27008143074269 119.57778256476578 3.999999999999999
    vertex 71.77686754231513 119.4522388400929 3.999999999999999
  endloop
endfacet
facet normal 2.1674022835407922e-17 1.2513502918444933e-17 -1.0
  outer loop
    vertex 71.34527917981517 115.6127161203229 3.999999999999999
    vertex 71.77686754231513 119.4522388400929 3.999999999999999
    vertex 71.84694068905848 115.75738512125669 3.999999999999999
  endloop
endfacet
facet normal 2.1674022835407922e-17 1.2513502918444933e-17 -1.0
  outer loop
    vertex 71.84694068905848 115.75738512125669 3.999999999999999
    vertex 71.77686754231513 119.4522388400929 3.999999999999999
    vertex 72.23389222894913 119.19980701663445 3.999999999999999
  endloop
endfacet
facet normal 2.1674022835407922e-17 1.2513502918444933e-17 -1.0
  outer loop
    vertex 71.84694068905848 115.75738512125669 3.999999999999999
    vertex 72.23389222894913 119.19980701663445 3.999999999999999
    vertex 72.29406540421412 116.02696419830912 3.999999999999999
  endloop
endfacet
facet normal 2.1674022835407922e-17 1.2513502918444933e-17 -1.0
  outer loop
    vertex 72.29406540421412 116.02696419830912 3.999999999999999
    vertex 72.23389222894913 119.19980701663445 3.999999999999999
    vertex 72.61001001351956 118.8376899059958 3.999999999999999
  endloop
endfacet
facet normal 2.1674022835407922e-17 1.2513502918444933e-17 -1.0
  outer loop
    vertex 72.29406540421412 116.02696419830912 3.999999999999999
    vertex 72.61001001351956 118.8376899059958 3.999999999999999
    vertex 72.65618251485277 116.40308198287953 3.999999999999999
  endloop
endfacet
facet normal 2.1674022835407922e-17 1.2513502918444933e-17 -1.0
  outer loop
    vertex 72.65618251485277 116.40308198287953 3.999999999999999
    vertex 72.61001001351956 118.8376899059958 3.999999999999999
    vertex 72.76421652185573 118.58192250049517 3.9999999999999996
  endloop
endfacet
facet normal 2.1674022835407922e-17 1.2513502918444933e-17 -1.0
  outer loop
    vertex 72.65618251485277 116.40308198287953 3.999999999999999
    vertex 72.76421652185573 118.58192250049517 3.9999999999999996
    vertex 72.90861433831122 116.86010666951354 3.999999999999999
  endloop
endfacet
facet normal 2.1674022835407922e-17 1.2513502918444933e-17 -1.0
  outer loop
    vertex 72.90861433831122 116.86010666951354 3.999999999999999
    vertex 72.76421652185573 118.58192250049517 3.9999999999999996
    vertex 72.87958909057197 118.39056519084016 3.999999999999999
  endloop
endfacet
facet normal 2.1674022835407922e-17 1.2513502918444933e-17 -1.0
  outer loop
    vertex 72.90861433831122 116.86010666951354 3.999999999999999
    vertex 72.87958909057197 118.39056519084016 3.999999999999999
    vertex 73.02425809150576 117.88890368159684 3.999999999999999
  endloop
endfacet
facet normal 2.1674022835407922e-17 1.2513502918444933e-17 -1.0
  outer loop
    vertex 72.90861433831122 116.86010666951354 3.999999999999999
    vertex 73.02425809150576 117.88890368159684 3.999999999999999
    vertex 73.0341580629841 117.36689278108597 3.999999999999999
  endloop
endfacet
facet normal -0.8753505309177786 0.48348882926285225 0.0
  outer loop
    vertex 72.90861433831122 116.86010666951354 3.999999999999999
    vertex 72.65618251485277 116.40308198287953 0.0
    vertex 72.65618251485277 116.40308198287953 3.999999999999999
  endloop
endfacet
facet normal -0.8753505309177786 0.48348882926285225 0.0
  outer loop
    vertex 72.65618251485277 116.40308198287953 0.0
    vertex 72.90861433831122 116.86010666951354 3.999999999999999
    vertex 72.90861433831122 116.86010666951354 0.0
  endloop
endfacet
facet normal -0.9608445261269265 -0.2770880665274528 -0.0
  outer loop
    vertex 72.87958909057197 118.39056519084016 3.999999999999999
    vertex 73.02425809150576 117.88890368159684 0.0
    vertex 73.02425809150576 117.88890368159684 3.999999999999999
  endloop
endfacet
facet normal -0.9608445261269265 -0.2770880665274528 -0.0
  outer loop
    vertex 73.02425809150576 117.88890368159684 0.0
    vertex 72.87958909057197 118.39056519084016 3.999999999999999
    vertex 72.87958909057197 118.39056519084016 0.0
  endloop
endfacet
facet normal -0.5163313823595459 0.8563888740465282 0.0
  outer loop
    vertex 71.84694068905848 115.75738512125669 3.999999999999999
    vertex 72.29406540421412 116.02696419830912 0.0
    vertex 71.84694068905848 115.75738512125669 0.0
  endloop
endfacet
facet normal -0.5163313823595459 0.8563888740465282 0.0
  outer loop
    vertex 72.29406540421412 116.02696419830912 0.0
    vertex 71.84694068905848 115.75738512125669 3.999999999999999
    vertex 72.29406540421412 116.02696419830912 3.999999999999999
  endloop
endfacet
facet normal -0.2770880665274528 0.9608445261269265 0.0
  outer loop
    vertex 71.34527917981517 115.6127161203229 3.999999999999999
    vertex 71.84694068905848 115.75738512125669 0.0
    vertex 71.34527917981517 115.6127161203229 0.0
  endloop
endfacet
facet normal -0.2770880665274528 0.9608445261269265 0.0
  outer loop
    vertex 71.84694068905848 115.75738512125669 0.0
    vertex 71.34527917981517 115.6127161203229 3.999999999999999
    vertex 71.84694068905848 115.75738512125669 3.999999999999999
  endloop
endfacet
facet normal -0.9998202116224184 -0.018961656871244403 -0.0
  outer loop
    vertex 73.02425809150576 117.88890368159684 3.999999999999999
    vertex 73.0341580629841 117.36689278108597 0.0
    vertex 73.0341580629841 117.36689278108597 3.999999999999999
  endloop
endfacet
facet normal -0.9998202116224184 -0.018961656871244403 -0.0
  outer loop
    vertex 73.0341580629841 117.36689278108597 0.0
    vertex 73.02425809150576 117.88890368159684 3.999999999999999
    vertex 73.02425809150576 117.88890368159684 0.0
  endloop
endfacet
facet normal -0.9706598019768711 0.24045695836515407 0.0
  outer loop
    vertex 73.0341580629841 117.36689278108597 3.999999999999999
    vertex 72.90861433831122 116.86010666951354 0.0
    vertex 72.90861433831122 116.86010666951354 3.999999999999999
  endloop
endfacet
facet normal -0.9706598019768711 0.24045695836515407 0.0
  outer loop
    vertex 72.90861433831122 116.86010666951354 0.0
    vertex 73.0341580629841 117.36689278108597 3.999999999999999
    vertex 73.0341580629841 117.36689278108597 0.0
  endloop
endfacet
facet normal -0.7203875677617516 0.693571735449411 0.0
  outer loop
    vertex 72.65618251485277 116.40308198287953 3.999999999999999
    vertex 72.29406540421412 116.02696419830912 0.0
    vertex 72.29406540421412 116.02696419830912 3.999999999999999
  endloop
endfacet
facet normal -0.7203875677617516 0.693571735449411 0.0
  outer loop
    vertex 72.29406540421412 116.02696419830912 0.0
    vertex 72.65618251485277 116.40308198287953 3.999999999999999
    vertex 72.65618251485277 116.40308198287953 0.0
  endloop
endfacet
facet normal 0.48348882926287057 0.8753505309177685 0.0
  outer loop
    vertex 69.85945748109785 115.98079169697588 3.999999999999999
    vertex 70.31648216773183 115.72835987351743 0.0
    vertex 69.85945748109785 115.98079169697588 0.0
  endloop
endfacet
facet normal 0.48348882926287057 0.8753505309177685 0.0
  outer loop
    vertex 70.31648216773183 115.72835987351743 0.0
    vertex 69.85945748109785 115.98079169697588 3.999999999999999
    vertex 70.31648216773183 115.72835987351743 3.999999999999999
  endloop
endfacet
facet normal 0.240456958365144 0.9706598019768735 0.0
  outer loop
    vertex 70.31648216773183 115.72835987351743 3.999999999999999
    vertex 70.82326827930429 115.60281614884455 0.0
    vertex 70.31648216773183 115.72835987351743 0.0
  endloop
endfacet
facet normal 0.240456958365144 0.9706598019768735 0.0
  outer loop
    vertex 70.82326827930429 115.60281614884455 0.0
    vertex 70.31648216773183 115.72835987351743 3.999999999999999
    vertex 70.82326827930429 115.60281614884455 3.999999999999999
  endloop
endfacet
facet normal -0.018961656871244403 0.9998202116224184 0.0
  outer loop
    vertex 70.82326827930429 115.60281614884455 3.999999999999999
    vertex 71.34527917981517 115.6127161203229 0.0
    vertex 70.82326827930429 115.60281614884455 0.0
  endloop
endfacet
facet normal -0.018961656871244403 0.9998202116224184 0.0
  outer loop
    vertex 71.34527917981517 115.6127161203229 0.0
    vertex 70.82326827930429 115.60281614884455 3.999999999999999
    vertex 71.34527917981517 115.6127161203229 3.999999999999999
  endloop
endfacet
facet normal 0.0 0.0 -1.0
  outer loop
    vertex 74.51077647016125 119.59029935680516 0.0
    vertex 72.87958909057197 118.39056519084016 0.0
    vertex 72.76421652185573 118.58192250049517 0.0
  endloop
endfacet
facet normal 0.0 0.0 -1.0
  outer loop
    vertex 72.87958909057197 118.39056519084016 0.0
    vertex 74.51077647016125 119.59029935680516 0.0
    vertex 73.02425809150576 117.88890368159684 0.0
  endloop
endfacet
facet normal 0.0 0.0 -1.0
  outer loop
    vertex 73.02425809150576 117.88890368159684 0.0
    vertex 74.51077647016125 119.59029935680516 0.0
    vertex 73.0341580629841 117.36689278108597 0.0
  endloop
endfacet
facet normal 0.0 0.0 -1.0
  outer loop
    vertex 73.0341580629841 117.36689278108597 0.0
    vertex 74.51077647016125 119.59029935680516 0.0
    vertex 73.04667485502348 114.12619774166741 0.0
  endloop
endfacet
facet normal 0.0 0.0 -1.0
  outer loop
    vertex 73.04667485502348 114.12619774166741 0.0
    vertex 74.51077647016125 119.59029935680516 0.0
    vertex 73.87510197976967 114.76187223205899 0.0
  endloop
endfacet
facet normal 0.0 0.0 -1.0
  outer loop
    vertex 73.87510197976967 114.76187223205899 0.0
    vertex 74.51077647016125 119.59029935680516 0.0
    vertex 74.51077647016125 115.59029935680518 0.0
  endloop
endfacet
facet normal 0.0 0.0 -1.0
  outer loop
    vertex 74.51077647016125 115.59029935680518 0.0
    vertex 74.51077647016125 119.59029935680516 0.0
    vertex 74.91037816017976 118.62557553721525 0.0
  endloop
endfacet
facet normal 0.0 0.0 -1.0
  outer loop
    vertex 74.51077647016125 115.59029935680518 0.0
    vertex 74.91037816017976 118.62557553721525 0.0
    vertex 74.91037816017976 116.55502317639508 0.0
  endloop
endfacet
facet normal 0.0 0.0 -1.0
  outer loop
    vertex 74.91037816017976 116.55502317639508 0.0
    vertex 74.91037816017976 118.62557553721525 0.0
    vertex 75.04667485502348 117.59029935680518 0.0
  endloop
endfacet
facet normal 0.0 0.0 -1.0
  outer loop
    vertex 69.32913318819126 116.59867621311517 0.0
    vertex 68.2182477302773 114.76187223205899 0.0
    vertex 67.58257323988573 115.59029935680518 0.0
  endloop
endfacet
facet normal 0.0 0.0 -1.0
  outer loop
    vertex 68.2182477302773 114.76187223205899 0.0
    vertex 69.32913318819126 116.59867621311517 0.0
    vertex 69.0466748550235 114.12619774166741 0.0
  endloop
endfacet
facet normal 0.0 0.0 -1.0
  outer loop
    vertex 69.0466748550235 114.12619774166741 0.0
    vertex 69.32913318819126 116.59867621311517 0.0
    vertex 70.0113986746134 113.7265960516489 0.0
  endloop
endfacet
facet normal 0.0 0.0 -1.0
  outer loop
    vertex 70.0113986746134 113.7265960516489 0.0
    vertex 69.32913318819126 116.59867621311517 0.0
    vertex 69.48333969652744 116.34290880761453 0.0
  endloop
endfacet
facet normal 0.0 0.0 -1.0
  outer loop
    vertex 70.0113986746134 113.7265960516489 0.0
    vertex 69.48333969652744 116.34290880761453 0.0
    vertex 69.85945748109785 115.98079169697588 0.0
  endloop
endfacet
facet normal 0.0 0.0 -1.0
  outer loop
    vertex 70.0113986746134 113.7265960516489 0.0
    vertex 69.85945748109785 115.98079169697588 0.0
    vertex 70.31648216773183 115.72835987351743 0.0
  endloop
endfacet
facet normal 0.0 0.0 -1.0
  outer loop
    vertex 70.0113986746134 113.7265960516489 0.0
    vertex 70.31648216773183 115.72835987351743 0.0
    vertex 71.0466748550235 113.59029935680518 0.0
  endloop
endfacet
facet normal 0.0 0.0 -1.0
  outer loop
    vertex 71.0466748550235 113.59029935680518 0.0
    vertex 70.31648216773183 115.72835987351743 0.0
    vertex 70.82326827930429 115.60281614884455 0.0
  endloop
endfacet
facet normal 0.0 0.0 -1.0
  outer loop
    vertex 71.0466748550235 113.59029935680518 0.0
    vertex 70.82326827930429 115.60281614884455 0.0
    vertex 71.34527917981517 115.6127161203229 0.0
  endloop
endfacet
facet normal 0.0 0.0 -1.0
  outer loop
    vertex 71.0466748550235 113.59029935680518 0.0
    vertex 71.34527917981517 115.6127161203229 0.0
    vertex 72.08195103543356 113.7265960516489 0.0
  endloop
endfacet
facet normal 0.0 0.0 -1.0
  outer loop
    vertex 72.08195103543356 113.7265960516489 0.0
    vertex 71.34527917981517 115.6127161203229 0.0
    vertex 71.84694068905848 115.75738512125669 0.0
  endloop
endfacet
facet normal 0.0 0.0 -1.0
  outer loop
    vertex 72.08195103543356 113.7265960516489 0.0
    vertex 71.84694068905848 115.75738512125669 0.0
    vertex 72.29406540421412 116.02696419830912 0.0
  endloop
endfacet
facet normal 0.0 0.0 -1.0
  outer loop
    vertex 72.08195103543356 113.7265960516489 0.0
    vertex 72.29406540421412 116.02696419830912 0.0
    vertex 73.04667485502348 114.12619774166741 0.0
  endloop
endfacet
facet normal 0.0 0.0 -1.0
  outer loop
    vertex 73.04667485502348 114.12619774166741 0.0
    vertex 72.29406540421412 116.02696419830912 0.0
    vertex 72.65618251485277 116.40308198287953 0.0
  endloop
endfacet
facet normal 0.0 0.0 -1.0
  outer loop
    vertex 73.04667485502348 114.12619774166741 0.0
    vertex 72.65618251485277 116.40308198287953 0.0
    vertex 72.90861433831122 116.86010666951354 0.0
  endloop
endfacet
facet normal 0.0 0.0 -1.0
  outer loop
    vertex 73.04667485502348 114.12619774166741 0.0
    vertex 72.90861433831122 116.86010666951354 0.0
    vertex 73.0341580629841 117.36689278108597 0.0
  endloop
endfacet
facet normal -0.6087614290087263 -0.793353340291231 -0.0
  outer loop
    vertex 69.0466748550235 114.12619774166741 0.9999999999999999
    vertex 68.2182477302773 114.76187223205899 0.0
    vertex 69.0466748550235 114.12619774166741 0.0
  endloop
endfacet
facet normal -0.6087614290087263 -0.793353340291231 -0.0
  outer loop
    vertex 68.2182477302773 114.76187223205899 0.0
    vertex 69.0466748550235 114.12619774166741 0.9999999999999999
    vertex 68.2182477302773 114.76187223205899 0.9999999999999999
  endloop
endfacet
facet normal -0.38268343236508595 -0.9238795325112884 -0.0
  outer loop
    vertex 70.0113986746134 113.7265960516489 0.9999999999999999
    vertex 69.0466748550235 114.12619774166741 0.0
    vertex 70.0113986746134 113.7265960516489 0.0
  endloop
endfacet
facet normal -0.38268343236508595 -0.9238795325112884 -0.0
  outer loop
    vertex 69.0466748550235 114.12619774166741 0.0
    vertex 70.0113986746134 113.7265960516489 0.9999999999999999
    vertex 69.0466748550235 114.12619774166741 0.9999999999999999
  endloop
endfacet
facet normal 0.9238795325112884 0.38268343236508595 0.0
  outer loop
    vertex 74.51077647016125 119.59029935680516 0.0
    vertex 74.91037816017976 118.62557553721525 0.9999999999999999
    vertex 74.91037816017976 118.62557553721525 0.0
  endloop
endfacet
facet normal 0.9238795325112884 0.38268343236508595 0.0
  outer loop
    vertex 74.91037816017976 118.62557553721525 0.9999999999999999
    vertex 74.51077647016125 119.59029935680516 0.0
    vertex 74.51077647016125 119.59029935680516 0.9999999999999999
  endloop
endfacet
facet normal -0.13052619222005077 -0.9914448613738106 -0.0
  outer loop
    vertex 71.0466748550235 113.59029935680518 0.9999999999999999
    vertex 70.0113986746134 113.7265960516489 0.0
    vertex 71.0466748550235 113.59029935680518 0.0
  endloop
endfacet
facet normal -0.13052619222005077 -0.9914448613738106 -0.0
  outer loop
    vertex 70.0113986746134 113.7265960516489 0.0
    vertex 71.0466748550235 113.59029935680518 0.9999999999999999
    vertex 70.0113986746134 113.7265960516489 0.9999999999999999
  endloop
endfacet
facet normal 0.13052619222005354 -0.9914448613738103 0.0
  outer loop
    vertex 72.08195103543356 113.7265960516489 0.9999999999999999
    vertex 71.0466748550235 113.59029935680518 0.0
    vertex 72.08195103543356 113.7265960516489 0.0
  endloop
endfacet
facet normal 0.13052619222005354 -0.9914448613738103 0.0
  outer loop
    vertex 71.0466748550235 113.59029935680518 0.0
    vertex 72.08195103543356 113.7265960516489 0.9999999999999999
    vertex 71.0466748550235 113.59029935680518 0.9999999999999999
  endloop
endfacet
facet normal 0.13052619222005077 0.9914448613738106 0.0
  outer loop
    vertex 71.0466748550235 121.59029935680516 0.9999999999999999
    vertex 72.08195103543358 121.45400266196144 0.0
    vertex 71.0466748550235 121.59029935680516 0.0
  endloop
endfacet
facet normal 0.13052619222005077 0.9914448613738106 0.0
  outer loop
    vertex 72.08195103543358 121.45400266196144 0.0
    vertex 71.0466748550235 121.59029935680516 0.9999999999999999
    vertex 72.08195103543358 121.45400266196144 0.9999999999999999
  endloop
endfacet
facet normal 0.6087614290087368 -0.7933533402912228 0.0
  outer loop
    vertex 73.87510197976967 114.76187223205899 0.9999999999999999
    vertex 73.04667485502348 114.12619774166741 0.0
    vertex 73.87510197976967 114.76187223205899 0.0
  endloop
endfacet
facet normal 0.6087614290087368 -0.7933533402912228 0.0
  outer loop
    vertex 73.04667485502348 114.12619774166741 0.0
    vertex 73.87510197976967 114.76187223205899 0.9999999999999999
    vertex 73.04667485502348 114.12619774166741 0.9999999999999999
  endloop
endfacet
facet normal -0.7933533402912228 0.6087614290087368 0.0
  outer loop
    vertex 68.21824773027731 120.41872648155135 0.9999999999999999
    vertex 67.58257323988573 119.59029935680516 0.0
    vertex 67.58257323988573 119.59029935680516 0.9999999999999999
  endloop
endfacet
facet normal -0.7933533402912228 0.6087614290087368 0.0
  outer loop
    vertex 67.58257323988573 119.59029935680516 0.0
    vertex 68.21824773027731 120.41872648155135 0.9999999999999999
    vertex 68.21824773027731 120.41872648155135 0.0
  endloop
endfacet
facet normal -0.9914448613738106 0.13052619222005077 0.0
  outer loop
    vertex 67.18297154986723 118.62557553721525 0.9999999999999999
    vertex 67.0466748550235 117.59029935680518 0.0
    vertex 67.0466748550235 117.59029935680518 0.9999999999999999
  endloop
endfacet
facet normal -0.9914448613738106 0.13052619222005077 0.0
  outer loop
    vertex 67.0466748550235 117.59029935680518 0.0
    vertex 67.18297154986723 118.62557553721525 0.9999999999999999
    vertex 67.18297154986723 118.62557553721525 0.0
  endloop
endfacet
facet normal 0.9238795325112884 -0.38268343236508595 0.0
  outer loop
    vertex 74.91037816017976 116.55502317639508 0.0
    vertex 74.51077647016125 115.59029935680518 0.9999999999999999
    vertex 74.51077647016125 115.59029935680518 0.0
  endloop
endfacet
facet normal 0.9238795325112884 -0.38268343236508595 0.0
  outer loop
    vertex 74.51077647016125 115.59029935680518 0.9999999999999999
    vertex 74.91037816017976 116.55502317639508 0.0
    vertex 74.91037816017976 116.55502317639508 0.9999999999999999
  endloop
endfacet
facet normal -0.38268343236508595 0.9238795325112884 0.0
  outer loop
    vertex 69.0466748550235 121.05440097194293 0.9999999999999999
    vertex 70.0113986746134 121.45400266196144 0.0
    vertex 69.0466748550235 121.05440097194293 0.0
  endloop
endfacet
facet normal -0.38268343236508595 0.9238795325112884 0.0
  outer loop
    vertex 70.0113986746134 121.45400266196144 0.0
    vertex 69.0466748550235 121.05440097194293 0.9999999999999999
    vertex 70.0113986746134 121.45400266196144 0.9999999999999999
  endloop
endfacet
facet normal -0.13052619222005077 0.9914448613738106 0.0
  outer loop
    vertex 70.0113986746134 121.45400266196144 0.9999999999999999
    vertex 71.0466748550235 121.59029935680516 0.0
    vertex 70.0113986746134 121.45400266196144 0.0
  endloop
endfacet
facet normal -0.13052619222005077 0.9914448613738106 0.0
  outer loop
    vertex 71.0466748550235 121.59029935680516 0.0
    vertex 70.0113986746134 121.45400266196144 0.9999999999999999
    vertex 71.0466748550235 121.59029935680516 0.9999999999999999
  endloop
endfacet
facet normal 0.7933533402912228 0.6087614290087368 0.0
  outer loop
    vertex 73.87510197976967 120.41872648155135 0.0
    vertex 74.51077647016125 119.59029935680516 0.9999999999999999
    vertex 74.51077647016125 119.59029935680516 0.0
  endloop
endfacet
facet normal 0.7933533402912228 0.6087614290087368 0.0
  outer loop
    vertex 74.51077647016125 119.59029935680516 0.9999999999999999
    vertex 73.87510197976967 120.41872648155135 0.0
    vertex 73.87510197976967 120.41872648155135 0.9999999999999999
  endloop
endfacet
facet normal -0.9238795325112884 0.38268343236508595 0.0
  outer loop
    vertex 67.58257323988573 119.59029935680516 0.9999999999999999
    vertex 67.18297154986723 118.62557553721525 0.0
    vertex 67.18297154986723 118.62557553721525 0.9999999999999999
  endloop
endfacet
facet normal -0.9238795325112884 0.38268343236508595 0.0
  outer loop
    vertex 67.18297154986723 118.62557553721525 0.0
    vertex 67.58257323988573 119.59029935680516 0.9999999999999999
    vertex 67.58257323988573 119.59029935680516 0.0
  endloop
endfacet
facet normal 0.6087614290087368 0.7933533402912228 0.0
  outer loop
    vertex 73.04667485502348 121.05440097194293 0.9999999999999999
    vertex 73.87510197976967 120.41872648155135 0.0
    vertex 73.04667485502348 121.05440097194293 0.0
  endloop
endfacet
facet normal 0.6087614290087368 0.7933533402912228 0.0
  outer loop
    vertex 73.87510197976967 120.41872648155135 0.0
    vertex 73.04667485502348 121.05440097194293 0.9999999999999999
    vertex 73.87510197976967 120.41872648155135 0.9999999999999999
  endloop
endfacet
facet normal -0.9914448613738103 -0.13052619222005354 -0.0
  outer loop
    vertex 67.0466748550235 117.59029935680518 0.9999999999999999
    vertex 67.18297154986723 116.5550231763951 0.0
    vertex 67.18297154986723 116.5550231763951 0.9999999999999999
  endloop
endfacet
facet normal -0.9914448613738103 -0.13052619222005354 -0.0
  outer loop
    vertex 67.18297154986723 116.5550231763951 0.0
    vertex 67.0466748550235 117.59029935680518 0.9999999999999999
    vertex 67.0466748550235 117.59029935680518 0.0
  endloop
endfacet
facet normal 6.503569635468865e-18 -1.1264513039194642e-17 1.0
  outer loop
    vertex 67.18297154986723 116.5550231763951 0.9999999999999999
    vertex 67.18297154986723 118.62557553721525 0.9999999999999999
    vertex 67.0466748550235 117.59029935680518 0.9999999999999999
  endloop
endfacet
facet normal 6.503569635468865e-18 -1.1264513039194642e-17 1.0
  outer loop
    vertex 67.18297154986723 118.62557553721525 0.9999999999999999
    vertex 67.18297154986723 116.5550231763951 0.9999999999999999
    vertex 67.58257323988573 115.59029935680518 0.9999999999999999
  endloop
endfacet
facet normal 6.503569635468865e-18 -1.1264513039194642e-17 1.0
  outer loop
    vertex 67.18297154986723 118.62557553721525 0.9999999999999999
    vertex 67.58257323988573 115.59029935680518 0.9999999999999999
    vertex 67.58257323988573 119.59029935680516 0.9999999999999999
  endloop
endfacet
facet normal 6.503569635468865e-18 -1.1264513039194642e-17 1.0
  outer loop
    vertex 67.58257323988573 119.59029935680516 0.9999999999999999
    vertex 67.58257323988573 115.59029935680518 0.9999999999999999
    vertex 68.438675124043 116.89148793502835 0.9999999999999996
  endloop
endfacet
facet normal 6.503569635468865e-18 -1.1264513039194642e-17 1.0
  outer loop
    vertex 68.438675124043 116.89148793502835 0.9999999999999996
    vertex 67.58257323988573 115.59029935680518 0.9999999999999999
    vertex 68.70840626480552 116.24029935680517 0.9999999999999996
  endloop
endfacet
facet normal 6.503569635468865e-18 -1.1264513039194642e-17 1.0
  outer loop
    vertex 67.58257323988573 119.59029935680516 0.9999999999999999
    vertex 68.438675124043 116.89148793502835 0.9999999999999996
    vertex 68.3466748550235 117.59029935680515 0.9999999999999994
  endloop
endfacet
facet normal 6.503569635468865e-18 -1.1264513039194642e-17 1.0
  outer loop
    vertex 67.58257323988573 119.59029935680516 0.9999999999999999
    vertex 68.3466748550235 117.59029935680515 0.9999999999999994
    vertex 68.21824773027731 120.41872648155135 0.9999999999999999
  endloop
endfacet
facet normal 6.503569635468865e-18 -1.1264513039194642e-17 1.0
  outer loop
    vertex 68.21824773027731 120.41872648155135 0.9999999999999999
    vertex 68.438675124043 118.28911077858197 0.9999999999999994
    vertex 69.0466748550235 121.05440097194293 0.9999999999999999
  endloop
endfacet
facet normal 6.503569635468865e-18 -1.1264513039194642e-17 1.0
  outer loop
    vertex 68.438675124043 118.28911077858197 0.9999999999999994
    vertex 68.21824773027731 120.41872648155135 0.9999999999999999
    vertex 68.3466748550235 117.59029935680515 0.9999999999999994
  endloop
endfacet
facet normal 6.503569635468865e-18 -1.1264513039194642e-17 1.0
  outer loop
    vertex 69.0466748550235 121.05440097194293 0.9999999999999999
    vertex 68.438675124043 118.28911077858197 0.9999999999999994
    vertex 68.70840626480549 118.94029935680516 0.9999999999999994
  endloop
endfacet
facet normal 6.503569635468865e-18 -1.1264513039194642e-17 1.0
  outer loop
    vertex 69.0466748550235 121.05440097194293 0.9999999999999999
    vertex 68.70840626480549 118.94029935680516 0.9999999999999994
    vertex 69.1374865458198 119.49948766600883 0.9999999999999994
  endloop
endfacet
facet normal 6.503569635468865e-18 -1.1264513039194642e-17 1.0
  outer loop
    vertex 69.0466748550235 121.05440097194293 0.9999999999999999
    vertex 69.1374865458198 119.49948766600883 0.9999999999999994
    vertex 70.0113986746134 121.45400266196144 0.9999999999999999
  endloop
endfacet
facet normal 6.503569635468865e-18 -1.1264513039194642e-17 1.0
  outer loop
    vertex 70.0113986746134 121.45400266196144 0.9999999999999999
    vertex 69.1374865458198 119.49948766600883 0.9999999999999994
    vertex 69.69667485502349 119.92856794702314 0.9999999999999994
  endloop
endfacet
facet normal 6.503569635468865e-18 -1.1264513039194642e-17 1.0
  outer loop
    vertex 70.0113986746134 121.45400266196144 0.9999999999999999
    vertex 69.69667485502349 119.92856794702314 0.9999999999999994
    vertex 70.34786343324667 120.19829908778566 0.9999999999999994
  endloop
endfacet
facet normal 6.503569635468865e-18 -1.1264513039194642e-17 1.0
  outer loop
    vertex 70.0113986746134 121.45400266196144 0.9999999999999999
    vertex 70.34786343324667 120.19829908778566 0.9999999999999994
    vertex 71.0466748550235 121.59029935680516 0.9999999999999999
  endloop
endfacet
facet normal 6.503569635468865e-18 -1.1264513039194642e-17 1.0
  outer loop
    vertex 71.0466748550235 121.59029935680516 0.9999999999999999
    vertex 70.34786343324667 120.19829908778566 0.9999999999999994
    vertex 71.04667485502347 120.29029935680516 0.9999999999999994
  endloop
endfacet
facet normal 6.503569635468865e-18 -1.1264513039194642e-17 1.0
  outer loop
    vertex 71.0466748550235 121.59029935680516 0.9999999999999999
    vertex 71.04667485502347 120.29029935680516 0.9999999999999994
    vertex 71.74548627680029 120.19829908778566 0.9999999999999994
  endloop
endfacet
facet normal 6.503569635468865e-18 -1.1264513039194642e-17 1.0
  outer loop
    vertex 71.0466748550235 121.59029935680516 0.9999999999999999
    vertex 71.74548627680029 120.19829908778566 0.9999999999999994
    vertex 72.08195103543358 121.45400266196144 0.9999999999999999
  endloop
endfacet
facet normal 6.503569635468865e-18 -1.1264513039194642e-17 1.0
  outer loop
    vertex 72.08195103543358 121.45400266196144 0.9999999999999999
    vertex 71.74548627680029 120.19829908778566 0.9999999999999994
    vertex 72.39667485502348 119.92856794702317 0.9999999999999994
  endloop
endfacet
facet normal 6.503569635468865e-18 -1.1264513039194642e-17 1.0
  outer loop
    vertex 72.08195103543358 121.45400266196144 0.9999999999999999
    vertex 72.39667485502348 119.92856794702317 0.9999999999999994
    vertex 73.04667485502348 121.05440097194293 0.9999999999999999
  endloop
endfacet
facet normal 6.503569635468865e-18 -1.1264513039194642e-17 1.0
  outer loop
    vertex 73.04667485502348 121.05440097194293 0.9999999999999999
    vertex 72.39667485502348 119.92856794702317 0.9999999999999994
    vertex 72.95586316422715 119.49948766600886 0.9999999999999996
  endloop
endfacet
facet normal 6.503569635468865e-18 -1.1264513039194642e-17 1.0
  outer loop
    vertex 73.04667485502348 121.05440097194293 0.9999999999999999
    vertex 72.95586316422715 119.49948766600886 0.9999999999999996
    vertex 73.38494344524146 118.94029935680518 0.9999999999999996
  endloop
endfacet
facet normal 6.503569635468865e-18 -1.1264513039194642e-17 1.0
  outer loop
    vertex 73.04667485502348 121.05440097194293 0.9999999999999999
    vertex 73.38494344524146 118.94029935680518 0.9999999999999996
    vertex 73.87510197976967 120.41872648155135 0.9999999999999999
  endloop
endfacet
facet normal 6.503569635468865e-18 -1.1264513039194642e-17 1.0
  outer loop
    vertex 73.87510197976967 120.41872648155135 0.9999999999999999
    vertex 73.38494344524146 118.94029935680518 0.9999999999999996
    vertex 74.51077647016125 119.59029935680516 0.9999999999999999
  endloop
endfacet
facet normal 0.9914448613738106 -0.13052619222005077 0.0
  outer loop
    vertex 75.04667485502348 117.59029935680518 0.0
    vertex 74.91037816017976 116.55502317639508 0.9999999999999999
    vertex 74.91037816017976 116.55502317639508 0.0
  endloop
endfacet
facet normal 0.9914448613738106 -0.13052619222005077 0.0
  outer loop
    vertex 74.91037816017976 116.55502317639508 0.9999999999999999
    vertex 75.04667485502348 117.59029935680518 0.0
    vertex 75.04667485502348 117.59029935680518 0.9999999999999999
  endloop
endfacet
facet normal 0.7933533402912228 -0.6087614290087368 0.0
  outer loop
    vertex 74.51077647016125 115.59029935680518 0.0
    vertex 73.87510197976967 114.76187223205899 0.9999999999999999
    vertex 73.87510197976967 114.76187223205899 0.0
  endloop
endfacet
facet normal 0.7933533402912228 -0.6087614290087368 0.0
  outer loop
    vertex 73.87510197976967 114.76187223205899 0.9999999999999999
    vertex 74.51077647016125 115.59029935680518 0.0
    vertex 74.51077647016125 115.59029935680518 0.9999999999999999
  endloop
endfacet
facet normal -0.7933533402912335 -0.6087614290087231 0.0
  outer loop
    vertex 67.58257323988573 115.59029935680518 0.9999999999999999
    vertex 68.2182477302773 114.76187223205899 0.0
    vertex 68.2182477302773 114.76187223205899 0.9999999999999999
  endloop
endfacet
facet normal -0.7933533402912335 -0.6087614290087231 0.0
  outer loop
    vertex 68.2182477302773 114.76187223205899 0.0
    vertex 67.58257323988573 115.59029935680518 0.9999999999999999
    vertex 67.58257323988573 115.59029935680518 0.0
  endloop
endfacet
facet normal 0.0 0.0 -1.0
  outer loop
    vertex 69.0466748550235 121.05440097194293 0.0
    vertex 69.18473537173575 118.3204920440968 0.0
    vertex 69.05919164706287 117.81370593252437 0.0
  endloop
endfacet
facet normal 0.0 0.0 -1.0
  outer loop
    vertex 69.18473537173575 118.3204920440968 0.0
    vertex 69.0466748550235 121.05440097194293 0.0
    vertex 70.0113986746134 121.45400266196144 0.0
  endloop
endfacet
facet normal 0.0 0.0 -1.0
  outer loop
    vertex 69.18473537173575 118.3204920440968 0.0
    vertex 70.0113986746134 121.45400266196144 0.0
    vertex 69.4371671951942 118.77751673073081 0.0
  endloop
endfacet
facet normal 0.0 0.0 -1.0
  outer loop
    vertex 69.4371671951942 118.77751673073081 0.0
    vertex 70.0113986746134 121.45400266196144 0.0
    vertex 69.79928430583286 119.15363451530122 0.0
  endloop
endfacet
facet normal 0.0 0.0 -1.0
  outer loop
    vertex 69.79928430583286 119.15363451530122 0.0
    vertex 70.0113986746134 121.45400266196144 0.0
    vertex 70.2464090209885 119.42321359235365 0.0
  endloop
endfacet
facet normal 0.0 0.0 -1.0
  outer loop
    vertex 70.2464090209885 119.42321359235365 0.0
    vertex 70.0113986746134 121.45400266196144 0.0
    vertex 71.0466748550235 121.59029935680516 0.0
  endloop
endfacet
facet normal 0.0 0.0 -1.0
  outer loop
    vertex 70.2464090209885 119.42321359235365 0.0
    vertex 71.0466748550235 121.59029935680516 0.0
    vertex 70.74807053023181 119.56788259328744 0.0
  endloop
endfacet
facet normal 0.0 0.0 -1.0
  outer loop
    vertex 70.74807053023181 119.56788259328744 0.0
    vertex 71.0466748550235 121.59029935680516 0.0
    vertex 71.27008143074269 119.57778256476578 0.0
  endloop
endfacet
facet normal 0.0 0.0 -1.0
  outer loop
    vertex 71.27008143074269 119.57778256476578 0.0
    vertex 71.0466748550235 121.59029935680516 0.0
    vertex 72.08195103543358 121.45400266196144 0.0
  endloop
endfacet
facet normal 0.0 0.0 -1.0
  outer loop
    vertex 71.27008143074269 119.57778256476578 0.0
    vertex 72.08195103543358 121.45400266196144 0.0
    vertex 71.77686754231513 119.4522388400929 0.0
  endloop
endfacet
facet normal 0.0 0.0 -1.0
  outer loop
    vertex 71.77686754231513 119.4522388400929 0.0
    vertex 72.08195103543358 121.45400266196144 0.0
    vertex 72.23389222894913 119.19980701663445 0.0
  endloop
endfacet
facet normal 0.0 0.0 -1.0
  outer loop
    vertex 72.23389222894913 119.19980701663445 0.0
    vertex 72.08195103543358 121.45400266196144 0.0
    vertex 73.04667485502348 121.05440097194293 0.0
  endloop
endfacet
facet normal 0.0 0.0 -1.0
  outer loop
    vertex 72.23389222894913 119.19980701663445 0.0
    vertex 73.04667485502348 121.05440097194293 0.0
    vertex 72.61001001351956 118.8376899059958 0.0
  endloop
endfacet
facet normal 0.0 0.0 -1.0
  outer loop
    vertex 72.61001001351956 118.8376899059958 0.0
    vertex 73.04667485502348 121.05440097194293 0.0
    vertex 72.76421652185573 118.58192250049517 0.0
  endloop
endfacet
facet normal 0.0 0.0 -1.0
  outer loop
    vertex 72.76421652185573 118.58192250049517 0.0
    vertex 73.04667485502348 121.05440097194293 0.0
    vertex 74.51077647016125 119.59029935680516 0.0
  endloop
endfacet
facet normal 0.0 0.0 -1.0
  outer loop
    vertex 74.51077647016125 119.59029935680516 0.0
    vertex 73.04667485502348 121.05440097194293 0.0
    vertex 73.87510197976967 120.41872648155135 0.0
  endloop
endfacet
facet normal 0.0 0.0 -1.0
  outer loop
    vertex 67.18297154986723 118.62557553721525 0.0
    vertex 67.18297154986723 116.5550231763951 0.0
    vertex 67.0466748550235 117.59029935680518 0.0
  endloop
endfacet
facet normal 0.0 0.0 -1.0
  outer loop
    vertex 67.18297154986723 116.5550231763951 0.0
    vertex 67.18297154986723 118.62557553721525 0.0
    vertex 67.58257323988573 119.59029935680516 0.0
  endloop
endfacet
facet normal 0.0 0.0 -1.0
  outer loop
    vertex 67.18297154986723 116.5550231763951 0.0
    vertex 67.58257323988573 119.59029935680516 0.0
    vertex 67.58257323988573 115.59029935680518 0.0
  endloop
endfacet
facet normal 0.0 0.0 -1.0
  outer loop
    vertex 67.58257323988573 115.59029935680518 0.0
    vertex 67.58257323988573 119.59029935680516 0.0
    vertex 68.21824773027731 120.41872648155135 0.0
  endloop
endfacet
facet normal 0.0 0.0 -1.0
  outer loop
    vertex 67.58257323988573 115.59029935680518 0.0
    vertex 68.21824773027731 120.41872648155135 0.0
    vertex 69.06909161854122 117.2916950320135 0.0
  endloop
endfacet
facet normal 0.0 0.0 -1.0
  outer loop
    vertex 67.58257323988573 115.59029935680518 0.0
    vertex 69.06909161854122 117.2916950320135 0.0
    vertex 69.21376061947501 116.79003352277017 0.0
  endloop
endfacet
facet normal 0.0 0.0 -1.0
  outer loop
    vertex 67.58257323988573 115.59029935680518 0.0
    vertex 69.21376061947501 116.79003352277017 0.0
    vertex 69.32913318819126 116.59867621311517 0.0
  endloop
endfacet
facet normal 0.0 0.0 -1.0
  outer loop
    vertex 69.06909161854122 117.2916950320135 0.0
    vertex 68.21824773027731 120.41872648155135 0.0
    vertex 69.05919164706287 117.81370593252437 0.0
  endloop
endfacet
facet normal 0.0 0.0 -1.0
  outer loop
    vertex 69.05919164706287 117.81370593252437 0.0
    vertex 68.21824773027731 120.41872648155135 0.0
    vertex 69.0466748550235 121.05440097194293 0.0
  endloop
endfacet
facet normal 0.38268343236508595 0.9238795325112884 0.0
  outer loop
    vertex 72.08195103543358 121.45400266196144 0.9999999999999999
    vertex 73.04667485502348 121.05440097194293 0.0
    vertex 72.08195103543358 121.45400266196144 0.0
  endloop
endfacet
facet normal 0.38268343236508595 0.9238795325112884 0.0
  outer loop
    vertex 73.04667485502348 121.05440097194293 0.0
    vertex 72.08195103543358 121.45400266196144 0.9999999999999999
    vertex 73.04667485502348 121.05440097194293 0.9999999999999999
  endloop
endfacet
facet normal 0.9914448613738106 0.13052619222005077 0.0
  outer loop
    vertex 74.91037816017976 118.62557553721525 0.0
    vertex 75.04667485502348 117.59029935680518 0.9999999999999999
    vertex 75.04667485502348 117.59029935680518 0.0
  endloop
endfacet
facet normal 0.9914448613738106 0.13052619222005077 0.0
  outer loop
    vertex 75.04667485502348 117.59029935680518 0.9999999999999999
    vertex 74.91037816017976 118.62557553721525 0.0
    vertex 74.91037816017976 118.62557553721525 0.9999999999999999
  endloop
endfacet
facet normal 0.38268343236507835 -0.9238795325112916 0.0
  outer loop
    vertex 73.04667485502348 114.12619774166741 0.9999999999999999
    vertex 72.08195103543356 113.7265960516489 0.0
    vertex 73.04667485502348 114.12619774166741 0.0
  endloop
endfacet
facet normal 0.38268343236507835 -0.9238795325112916 0.0
  outer loop
    vertex 72.08195103543356 113.7265960516489 0.0
    vertex 73.04667485502348 114.12619774166741 0.9999999999999999
    vertex 72.08195103543356 113.7265960516489 0.9999999999999999
  endloop
endfacet
facet normal -0.6087614290087368 0.7933533402912228 0.0
  outer loop
    vertex 68.21824773027731 120.41872648155135 0.9999999999999999
    vertex 69.0466748550235 121.05440097194293 0.0
    vertex 68.21824773027731 120.41872648155135 0.0
  endloop
endfacet
facet normal -0.6087614290087368 0.7933533402912228 0.0
  outer loop
    vertex 69.0466748550235 121.05440097194293 0.0
    vertex 68.21824773027731 120.41872648155135 0.9999999999999999
    vertex 69.0466748550235 121.05440097194293 0.9999999999999999
  endloop
endfacet
facet normal 0.7933533402912326 0.6087614290087239 -1.0051347668186056e-17
  outer loop
    vertex 72.95586316422715 119.49948766600886 0.9999999999999996
    vertex 73.38494344524146 118.94029935680518 4.996377567468008
    vertex 73.38494344524146 118.94029935680518 0.9999999999999996
  endloop
endfacet
facet normal 0.7933533402912326 0.6087614290087239 -1.0051347668186056e-17
  outer loop
    vertex 73.38494344524146 118.94029935680518 4.996377567468008
    vertex 72.95586316422715 119.49948766600886 0.9999999999999996
    vertex 72.95586316422715 119.49948766600886 4.996377567468008
  endloop
endfacet
facet normal -0.9238795325112925 0.382683432365076 -6.109325730992192e-17
  outer loop
    vertex 68.70840626480549 118.94029935680516 4.996377567468008
    vertex 68.438675124043 118.28911077858197 0.9999999999999994
    vertex 68.438675124043 118.28911077858197 4.996377567468008
  endloop
endfacet
facet normal -0.9238795325112925 0.382683432365076 -6.109325730992192e-17
  outer loop
    vertex 68.438675124043 118.28911077858197 0.9999999999999994
    vertex 68.70840626480549 118.94029935680516 4.996377567468008
    vertex 68.70840626480549 118.94029935680516 0.9999999999999994
  endloop
endfacet
facet normal -0.9238795325112812 -0.3826834323651033 -1.0051347668185432e-17
  outer loop
    vertex 68.438675124043 116.89148793502835 4.996377567468008
    vertex 68.70840626480552 116.24029935680517 0.9999999999999996
    vertex 68.70840626480552 116.24029935680517 4.996377567468008
  endloop
endfacet
facet normal -0.9238795325112812 -0.3826834323651033 -1.0051347668185432e-17
  outer loop
    vertex 68.70840626480552 116.24029935680517 0.9999999999999996
    vertex 68.438675124043 116.89148793502835 4.996377567468008
    vertex 68.438675124043 116.89148793502835 0.9999999999999996
  endloop
endfacet
facet normal -1.6774041051755408e-17 2.9053491349886534e-17 1.0
  outer loop
    vertex 68.2182477302773 114.76187223205899 0.9999999999999999
    vertex 68.70840626480552 116.24029935680517 0.9999999999999996
    vertex 67.58257323988573 115.59029935680518 0.9999999999999999
  endloop
endfacet
facet normal -1.6774041051755408e-17 2.9053491349886534e-17 1.0
  outer loop
    vertex 68.70840626480552 116.24029935680517 0.9999999999999996
    vertex 68.2182477302773 114.76187223205899 0.9999999999999999
    vertex 69.0466748550235 114.12619774166741 0.9999999999999999
  endloop
endfacet
facet normal -1.6774041051755408e-17 2.9053491349886534e-17 1.0
  outer loop
    vertex 68.70840626480552 116.24029935680517 0.9999999999999996
    vertex 69.0466748550235 114.12619774166741 0.9999999999999999
    vertex 69.13748654581983 115.68111104760148 0.9999999999999996
  endloop
endfacet
facet normal -1.6774041051755408e-17 2.9053491349886534e-17 1.0
  outer loop
    vertex 69.13748654581983 115.68111104760148 0.9999999999999996
    vertex 69.0466748550235 114.12619774166741 0.9999999999999999
    vertex 70.0113986746134 113.7265960516489 0.9999999999999999
  endloop
endfacet
facet normal -1.6774041051755408e-17 2.9053491349886534e-17 1.0
  outer loop
    vertex 69.13748654581983 115.68111104760148 0.9999999999999996
    vertex 70.0113986746134 113.7265960516489 0.9999999999999999
    vertex 69.6966748550235 115.25203076658717 0.9999999999999998
  endloop
endfacet
facet normal -1.6774041051755408e-17 2.9053491349886534e-17 1.0
  outer loop
    vertex 69.6966748550235 115.25203076658717 0.9999999999999998
    vertex 70.0113986746134 113.7265960516489 0.9999999999999999
    vertex 70.3478634332467 114.98229962582468 0.9999999999999998
  endloop
endfacet
facet normal -1.6774041051755408e-17 2.9053491349886534e-17 1.0
  outer loop
    vertex 70.3478634332467 114.98229962582468 0.9999999999999998
    vertex 70.0113986746134 113.7265960516489 0.9999999999999999
    vertex 71.0466748550235 113.59029935680518 0.9999999999999999
  endloop
endfacet
facet normal -1.6774041051755408e-17 2.9053491349886534e-17 1.0
  outer loop
    vertex 70.3478634332467 114.98229962582468 0.9999999999999998
    vertex 71.0466748550235 113.59029935680518 0.9999999999999999
    vertex 71.04667485502351 114.89029935680517 0.9999999999999998
  endloop
endfacet
facet normal -1.6774041051755408e-17 2.9053491349886534e-17 1.0
  outer loop
    vertex 71.04667485502351 114.89029935680517 0.9999999999999998
    vertex 71.0466748550235 113.59029935680518 0.9999999999999999
    vertex 72.08195103543356 113.7265960516489 0.9999999999999999
  endloop
endfacet
facet normal -1.6774041051755408e-17 2.9053491349886534e-17 1.0
  outer loop
    vertex 71.04667485502351 114.89029935680517 0.9999999999999998
    vertex 72.08195103543356 113.7265960516489 0.9999999999999999
    vertex 71.7454862768003 114.98229962582468 0.9999999999999998
  endloop
endfacet
facet normal -1.6774041051755408e-17 2.9053491349886534e-17 1.0
  outer loop
    vertex 71.7454862768003 114.98229962582468 0.9999999999999998
    vertex 72.08195103543356 113.7265960516489 0.9999999999999999
    vertex 72.3966748550235 115.2520307665872 0.9999999999999998
  endloop
endfacet
facet normal -1.6774041051755408e-17 2.9053491349886534e-17 1.0
  outer loop
    vertex 72.3966748550235 115.2520307665872 0.9999999999999998
    vertex 72.08195103543356 113.7265960516489 0.9999999999999999
    vertex 73.04667485502348 114.12619774166741 0.9999999999999999
  endloop
endfacet
facet normal -1.6774041051755408e-17 2.9053491349886534e-17 1.0
  outer loop
    vertex 72.3966748550235 115.2520307665872 0.9999999999999998
    vertex 73.04667485502348 114.12619774166741 0.9999999999999999
    vertex 72.95586316422718 115.6811110476015 0.9999999999999998
  endloop
endfacet
facet normal -1.6774041051755408e-17 2.9053491349886534e-17 1.0
  outer loop
    vertex 72.95586316422718 115.6811110476015 0.9999999999999998
    vertex 73.04667485502348 114.12619774166741 0.9999999999999999
    vertex 73.38494344524149 116.24029935680518 0.9999999999999998
  endloop
endfacet
facet normal -1.6774041051755408e-17 2.9053491349886534e-17 1.0
  outer loop
    vertex 73.38494344524149 116.24029935680518 0.9999999999999998
    vertex 73.04667485502348 114.12619774166741 0.9999999999999999
    vertex 73.87510197976967 114.76187223205899 0.9999999999999999
  endloop
endfacet
facet normal -1.6774041051755408e-17 2.9053491349886534e-17 1.0
  outer loop
    vertex 73.38494344524149 116.24029935680518 0.9999999999999998
    vertex 73.87510197976967 114.76187223205899 0.9999999999999999
    vertex 73.65467458600398 116.89148793502837 0.9999999999999998
  endloop
endfacet
facet normal -1.6774041051755408e-17 2.9053491349886534e-17 1.0
  outer loop
    vertex 73.65467458600398 116.89148793502837 0.9999999999999998
    vertex 73.87510197976967 114.76187223205899 0.9999999999999999
    vertex 73.74667485502349 117.59029935680519 0.9999999999999998
  endloop
endfacet
facet normal -1.6774041051755408e-17 2.9053491349886534e-17 1.0
  outer loop
    vertex 73.65467458600398 118.28911077858199 0.9999999999999996
    vertex 74.51077647016125 119.59029935680516 0.9999999999999999
    vertex 73.38494344524146 118.94029935680518 0.9999999999999996
  endloop
endfacet
facet normal -1.6774041051755408e-17 2.9053491349886534e-17 1.0
  outer loop
    vertex 74.51077647016125 119.59029935680516 0.9999999999999999
    vertex 73.65467458600398 118.28911077858199 0.9999999999999996
    vertex 73.74667485502349 117.59029935680519 0.9999999999999998
  endloop
endfacet
facet normal -1.6774041051755408e-17 2.9053491349886534e-17 1.0
  outer loop
    vertex 74.51077647016125 119.59029935680516 0.9999999999999999
    vertex 73.74667485502349 117.59029935680519 0.9999999999999998
    vertex 73.87510197976967 114.76187223205899 0.9999999999999999
  endloop
endfacet
facet normal -1.6774041051755408e-17 2.9053491349886534e-17 1.0
  outer loop
    vertex 74.51077647016125 119.59029935680516 0.9999999999999999
    vertex 73.87510197976967 114.76187223205899 0.9999999999999999
    vertex 74.51077647016125 115.59029935680518 0.9999999999999999
  endloop
endfacet
facet normal -1.6774041051755408e-17 2.9053491349886534e-17 1.0
  outer loop
    vertex 74.51077647016125 119.59029935680516 0.9999999999999999
    vertex 74.51077647016125 115.59029935680518 0.9999999999999999
    vertex 74.91037816017976 116.55502317639508 0.9999999999999999
  endloop
endfacet
facet normal -1.6774041051755408e-17 2.9053491349886534e-17 1.0
  outer loop
    vertex 74.51077647016125 119.59029935680516 0.9999999999999999
    vertex 74.91037816017976 116.55502317639508 0.9999999999999999
    vertex 74.91037816017976 118.62557553721525 0.9999999999999999
  endloop
endfacet
facet normal -1.6774041051755408e-17 2.9053491349886534e-17 1.0
  outer loop
    vertex 74.91037816017976 118.62557553721525 0.9999999999999999
    vertex 74.91037816017976 116.55502317639508 0.9999999999999999
    vertex 75.04667485502348 117.59029935680518 0.9999999999999999
  endloop
endfacet
facet normal 0.3826834323651033 -0.9238795325112812 7.634756538905539e-17
  outer loop
    vertex 72.3966748550235 115.2520307665872 4.996377567468008
    vertex 71.7454862768003 114.98229962582468 0.9999999999999998
    vertex 72.3966748550235 115.2520307665872 0.9999999999999998
  endloop
endfacet
facet normal 0.3826834323651033 -0.9238795325112812 7.634756538905539e-17
  outer loop
    vertex 71.7454862768003 114.98229962582468 0.9999999999999998
    vertex 72.3966748550235 115.2520307665872 4.996377567468008
    vertex 71.7454862768003 114.98229962582468 4.996377567468008
  endloop
endfacet
facet normal 0.6087614290087239 -0.7933533402912326 7.634756538905531e-17
  outer loop
    vertex 72.95586316422718 115.6811110476015 4.996377567468008
    vertex 72.3966748550235 115.2520307665872 0.9999999999999998
    vertex 72.95586316422718 115.6811110476015 0.9999999999999998
  endloop
endfacet
facet normal 0.6087614290087239 -0.7933533402912326 7.634756538905531e-17
  outer loop
    vertex 72.3966748550235 115.2520307665872 0.9999999999999998
    vertex 72.95586316422718 115.6811110476015 4.996377567468008
    vertex 72.3966748550235 115.2520307665872 4.996377567468008
  endloop
endfacet
facet normal -0.6087614290087239 0.7933533402912326 -7.634756538905531e-17
  outer loop
    vertex 69.1374865458198 119.49948766600883 4.996377567468008
    vertex 69.69667485502349 119.92856794702314 0.9999999999999994
    vertex 69.1374865458198 119.49948766600883 0.9999999999999994
  endloop
endfacet
facet normal -0.6087614290087239 0.7933533402912326 -7.634756538905531e-17
  outer loop
    vertex 69.69667485502349 119.92856794702314 0.9999999999999994
    vertex 69.1374865458198 119.49948766600883 4.996377567468008
    vertex 69.69667485502349 119.92856794702314 4.996377567468008
  endloop
endfacet
facet normal 0.9238795325112925 -0.382683432365076 6.109325730992192e-17
  outer loop
    vertex 73.65467458600398 116.89148793502837 0.9999999999999998
    vertex 73.38494344524149 116.24029935680518 4.996377567468008
    vertex 73.38494344524149 116.24029935680518 0.9999999999999998
  endloop
endfacet
facet normal 0.9238795325112925 -0.382683432365076 6.109325730992192e-17
  outer loop
    vertex 73.38494344524149 116.24029935680518 4.996377567468008
    vertex 73.65467458600398 116.89148793502837 0.9999999999999998
    vertex 73.65467458600398 116.89148793502837 4.996377567468008
  endloop
endfacet
facet normal 0.9238795325112812 0.3826834323651033 1.0051347668185432e-17
  outer loop
    vertex 73.38494344524146 118.94029935680518 0.9999999999999996
    vertex 73.65467458600398 118.28911077858199 4.996377567468008
    vertex 73.65467458600398 118.28911077858199 0.9999999999999996
  endloop
endfacet
facet normal 0.9238795325112812 0.3826834323651033 1.0051347668185432e-17
  outer loop
    vertex 73.65467458600398 118.28911077858199 4.996377567468008
    vertex 73.38494344524146 118.94029935680518 0.9999999999999996
    vertex 73.38494344524146 118.94029935680518 4.996377567468008
  endloop
endfacet
facet normal -0.7933533402912326 -0.6087614290087239 1.0051347668186056e-17
  outer loop
    vertex 68.70840626480552 116.24029935680517 4.996377567468008
    vertex 69.13748654581983 115.68111104760148 0.9999999999999996
    vertex 69.13748654581983 115.68111104760148 4.996377567468008
  endloop
endfacet
facet normal -0.7933533402912326 -0.6087614290087239 1.0051347668186056e-17
  outer loop
    vertex 69.13748654581983 115.68111104760148 0.9999999999999996
    vertex 68.70840626480552 116.24029935680517 4.996377567468008
    vertex 68.70840626480552 116.24029935680517 0.9999999999999996
  endloop
endfacet
facet normal -0.6087614290087239 -0.7933533402912326 2.946906027160829e-17
  outer loop
    vertex 69.6966748550235 115.25203076658717 0.9999999999999998
    vertex 69.13748654581983 115.68111104760148 4.996377567468008
    vertex 69.13748654581983 115.68111104760148 0.9999999999999996
  endloop
endfacet
facet normal -0.6087614290087239 -0.7933533402912326 2.946906027160829e-17
  outer loop
    vertex 69.13748654581983 115.68111104760148 4.996377567468008
    vertex 69.6966748550235 115.25203076658717 0.9999999999999998
    vertex 69.6966748550235 115.25203076658717 4.996377567468008
  endloop
endfacet
facet normal -0.382683432365076 -0.9238795325112925 4.687850511744692e-17
  outer loop
    vertex 70.3478634332467 114.98229962582468 4.996377567468008
    vertex 69.6966748550235 115.25203076658717 0.9999999999999998
    vertex 70.3478634332467 114.98229962582468 0.9999999999999998
  endloop
endfacet
facet normal -0.382683432365076 -0.9238795325112925 4.687850511744692e-17
  outer loop
    vertex 69.6966748550235 115.25203076658717 0.9999999999999998
    vertex 70.3478634332467 114.98229962582468 4.996377567468008
    vertex 69.6966748550235 115.25203076658717 4.996377567468008
  endloop
endfacet
facet normal -0.9238795325112916 -0.3826834323650784 0.0
  outer loop
    vertex 67.18297154986723 116.5550231763951 0.9999999999999999
    vertex 67.58257323988573 115.59029935680518 0.0
    vertex 67.58257323988573 115.59029935680518 0.9999999999999999
  endloop
endfacet
facet normal -0.9238795325112916 -0.3826834323650784 0.0
  outer loop
    vertex 67.58257323988573 115.59029935680518 0.0
    vertex 67.18297154986723 116.5550231763951 0.9999999999999999
    vertex 67.18297154986723 116.5550231763951 0.0
  endloop
endfacet
facet normal -0.13052619222004222 -0.9914448613738116 6.109325730992257e-17
  outer loop
    vertex 71.04667485502351 114.89029935680517 4.996377567468008
    vertex 70.3478634332467 114.98229962582468 0.9999999999999998
    vertex 71.04667485502351 114.89029935680517 0.9999999999999998
  endloop
endfacet
facet normal -0.13052619222004222 -0.9914448613738116 6.109325730992257e-17
  outer loop
    vertex 70.3478634332467 114.98229962582468 0.9999999999999998
    vertex 71.04667485502351 114.89029935680517 4.996377567468008
    vertex 70.3478634332467 114.98229962582468 4.996377567468008
  endloop
endfacet
facet normal 0.9914448613738116 -0.13052619222004222 4.6878505117446075e-17
  outer loop
    vertex 73.74667485502349 117.59029935680519 0.9999999999999998
    vertex 73.65467458600398 116.89148793502837 4.996377567468008
    vertex 73.65467458600398 116.89148793502837 0.9999999999999998
  endloop
endfacet
facet normal 0.9914448613738116 -0.13052619222004222 4.6878505117446075e-17
  outer loop
    vertex 73.65467458600398 116.89148793502837 4.996377567468008
    vertex 73.74667485502349 117.59029935680519 0.9999999999999998
    vertex 73.74667485502349 117.59029935680519 4.996377567468008
  endloop
endfacet
facet normal 0.9914448613738113 0.13052619222004638 2.9469060271609726e-17
  outer loop
    vertex 73.65467458600398 118.28911077858199 0.9999999999999996
    vertex 73.74667485502349 117.59029935680519 4.996377567468008
    vertex 73.74667485502349 117.59029935680519 0.9999999999999998
  endloop
endfacet
facet normal 0.9914448613738113 0.13052619222004638 2.9469060271609726e-17
  outer loop
    vertex 73.74667485502349 117.59029935680519 4.996377567468008
    vertex 73.65467458600398 118.28911077858199 0.9999999999999996
    vertex 73.65467458600398 118.28911077858199 4.996377567468008
  endloop
endfacet
facet normal -0.3826834323651033 0.9238795325112812 -7.634756538905539e-17
  outer loop
    vertex 69.69667485502349 119.92856794702314 4.996377567468008
    vertex 70.34786343324667 120.19829908778566 0.9999999999999994
    vertex 69.69667485502349 119.92856794702314 0.9999999999999994
  endloop
endfacet
facet normal -0.3826834323651033 0.9238795325112812 -7.634756538905539e-17
  outer loop
    vertex 70.34786343324667 120.19829908778566 0.9999999999999994
    vertex 69.69667485502349 119.92856794702314 4.996377567468008
    vertex 70.34786343324667 120.19829908778566 4.996377567468008
  endloop
endfacet
facet normal -3.85031827605944e-17 6.668946879445879e-17 1.0
  outer loop
    vertex 68.438675124043 116.89148793502835 4.996377567468008
    vertex 68.438675124043 118.28911077858197 4.996377567468008
    vertex 68.3466748550235 117.59029935680515 4.996377567468008
  endloop
endfacet
facet normal -3.85031827605944e-17 6.668946879445879e-17 1.0
  outer loop
    vertex 68.438675124043 118.28911077858197 4.996377567468008
    vertex 68.438675124043 116.89148793502835 4.996377567468008
    vertex 68.70840626480552 116.24029935680517 4.996377567468008
  endloop
endfacet
facet normal -3.85031827605944e-17 6.668946879445879e-17 1.0
  outer loop
    vertex 68.438675124043 118.28911077858197 4.996377567468008
    vertex 68.70840626480552 116.24029935680517 4.996377567468008
    vertex 68.70840626480549 118.94029935680516 4.996377567468008
  endloop
endfacet
facet normal -3.85031827605944e-17 6.668946879445879e-17 1.0
  outer loop
    vertex 68.70840626480549 118.94029935680516 4.996377567468008
    vertex 68.70840626480552 116.24029935680517 4.996377567468008
    vertex 69.1374865458198 119.49948766600883 4.996377567468008
  endloop
endfacet
facet normal -3.85031827605944e-17 6.668946879445879e-17 1.0
  outer loop
    vertex 69.1374865458198 119.49948766600883 4.996377567468008
    vertex 68.70840626480552 116.24029935680517 4.996377567468008
    vertex 69.13748654581983 115.68111104760148 4.996377567468008
  endloop
endfacet
facet normal -3.85031827605944e-17 6.668946879445879e-17 1.0
  outer loop
    vertex 69.1374865458198 119.49948766600883 4.996377567468008
    vertex 69.13748654581983 115.68111104760148 4.996377567468008
    vertex 69.69667485502349 119.92856794702314 4.996377567468008
  endloop
endfacet
facet normal -3.85031827605944e-17 6.668946879445879e-17 1.0
  outer loop
    vertex 69.69667485502349 119.92856794702314 4.996377567468008
    vertex 69.13748654581983 115.68111104760148 4.996377567468008
    vertex 69.6966748550235 115.25203076658717 4.996377567468008
  endloop
endfacet
facet normal -3.85031827605944e-17 6.668946879445879e-17 1.0
  outer loop
    vertex 69.69667485502349 119.92856794702314 4.996377567468008
    vertex 69.6966748550235 115.25203076658717 4.996377567468008
    vertex 70.34786343324667 120.19829908778566 4.996377567468008
  endloop
endfacet
facet normal -3.85031827605944e-17 6.668946879445879e-17 1.0
  outer loop
    vertex 70.34786343324667 120.19829908778566 4.996377567468008
    vertex 69.6966748550235 115.25203076658717 4.996377567468008
    vertex 70.3478634332467 114.98229962582468 4.996377567468008
  endloop
endfacet
facet normal -3.85031827605944e-17 6.668946879445879e-17 1.0
  outer loop
    vertex 70.34786343324667 120.19829908778566 4.996377567468008
    vertex 70.3478634332467 114.98229962582468 4.996377567468008
    vertex 71.04667485502347 120.29029935680516 4.996377567468008
  endloop
endfacet
facet normal -3.85031827605944e-17 6.668946879445879e-17 1.0
  outer loop
    vertex 71.04667485502347 120.29029935680516 4.996377567468008
    vertex 70.3478634332467 114.98229962582468 4.996377567468008
    vertex 71.04667485502351 114.89029935680517 4.996377567468008
  endloop
endfacet
facet normal -3.85031827605944e-17 6.668946879445879e-17 1.0
  outer loop
    vertex 71.04667485502347 120.29029935680516 4.996377567468008
    vertex 71.04667485502351 114.89029935680517 4.996377567468008
    vertex 71.74548627680029 120.19829908778566 4.996377567468008
  endloop
endfacet
facet normal -3.85031827605944e-17 6.668946879445879e-17 1.0
  outer loop
    vertex 71.74548627680029 120.19829908778566 4.996377567468008
    vertex 71.04667485502351 114.89029935680517 4.996377567468008
    vertex 71.7454862768003 114.98229962582468 4.996377567468008
  endloop
endfacet
facet normal -3.85031827605944e-17 6.668946879445879e-17 1.0
  outer loop
    vertex 71.74548627680029 120.19829908778566 4.996377567468008
    vertex 71.7454862768003 114.98229962582468 4.996377567468008
    vertex 72.39667485502348 119.92856794702317 4.996377567468008
  endloop
endfacet
facet normal -3.85031827605944e-17 6.668946879445879e-17 1.0
  outer loop
    vertex 72.39667485502348 119.92856794702317 4.996377567468008
    vertex 71.7454862768003 114.98229962582468 4.996377567468008
    vertex 72.3966748550235 115.2520307665872 4.996377567468008
  endloop
endfacet
facet normal -3.85031827605944e-17 6.668946879445879e-17 1.0
  outer loop
    vertex 72.39667485502348 119.92856794702317 4.996377567468008
    vertex 72.3966748550235 115.2520307665872 4.996377567468008
    vertex 72.95586316422715 119.49948766600886 4.996377567468008
  endloop
endfacet
facet normal -3.85031827605944e-17 6.668946879445879e-17 1.0
  outer loop
    vertex 72.95586316422715 119.49948766600886 4.996377567468008
    vertex 72.3966748550235 115.2520307665872 4.996377567468008
    vertex 72.95586316422718 115.6811110476015 4.996377567468008
  endloop
endfacet
facet normal -3.85031827605944e-17 6.668946879445879e-17 1.0
  outer loop
    vertex 72.95586316422715 119.49948766600886 4.996377567468008
    vertex 72.95586316422718 115.6811110476015 4.996377567468008
    vertex 73.38494344524146 118.94029935680518 4.996377567468008
  endloop
endfacet
facet normal -3.85031827605944e-17 6.668946879445879e-17 1.0
  outer loop
    vertex 73.38494344524146 118.94029935680518 4.996377567468008
    vertex 72.95586316422718 115.6811110476015 4.996377567468008
    vertex 73.38494344524149 116.24029935680518 4.996377567468008
  endloop
endfacet
facet normal -3.85031827605944e-17 6.668946879445879e-17 1.0
  outer loop
    vertex 73.38494344524146 118.94029935680518 4.996377567468008
    vertex 73.38494344524149 116.24029935680518 4.996377567468008
    vertex 73.65467458600398 118.28911077858199 4.996377567468008
  endloop
endfacet
facet normal -3.85031827605944e-17 6.668946879445879e-17 1.0
  outer loop
    vertex 73.65467458600398 118.28911077858199 4.996377567468008
    vertex 73.38494344524149 116.24029935680518 4.996377567468008
    vertex 73.65467458600398 116.89148793502837 4.996377567468008
  endloop
endfacet
facet normal -3.85031827605944e-17 6.668946879445879e-17 1.0
  outer loop
    vertex 73.65467458600398 118.28911077858199 4.996377567468008
    vertex 73.65467458600398 116.89148793502837 4.996377567468008
    vertex 73.74667485502349 117.59029935680519 4.996377567468008
  endloop
endfacet
facet normal 0.13052619222004222 0.9914448613738116 -6.109325730992257e-17
  outer loop
    vertex 71.04667485502347 120.29029935680516 4.996377567468008
    vertex 71.74548627680029 120.19829908778566 0.9999999999999994
    vertex 71.04667485502347 120.29029935680516 0.9999999999999994
  endloop
endfacet
facet normal 0.13052619222004222 0.9914448613738116 -6.109325730992257e-17
  outer loop
    vertex 71.74548627680029 120.19829908778566 0.9999999999999994
    vertex 71.04667485502347 120.29029935680516 4.996377567468008
    vertex 71.74548627680029 120.19829908778566 4.996377567468008
  endloop
endfacet
facet normal -0.9914448613738116 0.13052619222004222 -4.6878505117446075e-17
  outer loop
    vertex 68.438675124043 118.28911077858197 4.996377567468008
    vertex 68.3466748550235 117.59029935680515 0.9999999999999994
    vertex 68.3466748550235 117.59029935680515 4.996377567468008
  endloop
endfacet
facet normal -0.9914448613738116 0.13052619222004222 -4.6878505117446075e-17
  outer loop
    vertex 68.3466748550235 117.59029935680515 0.9999999999999994
    vertex 68.438675124043 118.28911077858197 4.996377567468008
    vertex 68.438675124043 118.28911077858197 0.9999999999999994
  endloop
endfacet
facet normal 0.6087614290087239 0.7933533402912326 -2.946906027160829e-17
  outer loop
    vertex 72.39667485502348 119.92856794702317 4.996377567468008
    vertex 72.95586316422715 119.49948766600886 0.9999999999999996
    vertex 72.39667485502348 119.92856794702317 0.9999999999999994
  endloop
endfacet
facet normal 0.6087614290087239 0.7933533402912326 -2.946906027160829e-17
  outer loop
    vertex 72.95586316422715 119.49948766600886 0.9999999999999996
    vertex 72.39667485502348 119.92856794702317 4.996377567468008
    vertex 72.95586316422715 119.49948766600886 4.996377567468008
  endloop
endfacet
facet normal 0.7933533402912326 -0.6087614290087239 7.11446049781088e-17
  outer loop
    vertex 73.38494344524149 116.24029935680518 0.9999999999999998
    vertex 72.95586316422718 115.6811110476015 4.996377567468008
    vertex 72.95586316422718 115.6811110476015 0.9999999999999998
  endloop
endfacet
facet normal 0.7933533402912326 -0.6087614290087239 7.11446049781088e-17
  outer loop
    vertex 72.95586316422718 115.6811110476015 4.996377567468008
    vertex 73.38494344524149 116.24029935680518 0.9999999999999998
    vertex 73.38494344524149 116.24029935680518 4.996377567468008
  endloop
endfacet
facet normal -0.24045695836515407 -0.9706598019768711 -0.0
  outer loop
    vertex 71.77686754231513 119.4522388400929 3.999999999999999
    vertex 71.27008143074269 119.57778256476578 0.0
    vertex 71.77686754231513 119.4522388400929 0.0
  endloop
endfacet
facet normal -0.24045695836515407 -0.9706598019768711 -0.0
  outer loop
    vertex 71.27008143074269 119.57778256476578 0.0
    vertex 71.77686754231513 119.4522388400929 3.999999999999999
    vertex 71.27008143074269 119.57778256476578 3.999999999999999
  endloop
endfacet
facet normal 0.8753505309177786 -0.48348882926285225 0.0
  outer loop
    vertex 69.4371671951942 118.77751673073081 0.0
    vertex 69.18473537173575 118.3204920440968 3.999999999999999
    vertex 69.18473537173575 118.3204920440968 0.0
  endloop
endfacet
facet normal 0.8753505309177786 -0.48348882926285225 0.0
  outer loop
    vertex 69.18473537173575 118.3204920440968 3.999999999999999
    vertex 69.4371671951942 118.77751673073081 0.0
    vertex 69.4371671951942 118.77751673073081 3.999999999999999
  endloop
endfacet
facet normal 0.7203875677617516 -0.693571735449411 0.0
  outer loop
    vertex 69.79928430583286 119.15363451530122 0.0
    vertex 69.4371671951942 118.77751673073081 3.999999999999999
    vertex 69.4371671951942 118.77751673073081 0.0
  endloop
endfacet
facet normal 0.7203875677617516 -0.693571735449411 0.0
  outer loop
    vertex 69.4371671951942 118.77751673073081 3.999999999999999
    vertex 69.79928430583286 119.15363451530122 0.0
    vertex 69.79928430583286 119.15363451530122 3.999999999999999
  endloop
endfacet
facet normal -0.9914448613738113 -0.13052619222004638 -2.9469060271609726e-17
  outer loop
    vertex 68.3466748550235 117.59029935680515 4.996377567468008
    vertex 68.438675124043 116.89148793502835 0.9999999999999996
    vertex 68.438675124043 116.89148793502835 4.996377567468008
  endloop
endfacet
facet normal -0.9914448613738113 -0.13052619222004638 -2.9469060271609726e-17
  outer loop
    vertex 68.438675124043 116.89148793502835 0.9999999999999996
    vertex 68.3466748550235 117.59029935680515 4.996377567468008
    vertex 68.3466748550235 117.59029935680515 0.9999999999999994
  endloop
endfacet
facet normal 0.9706598019768711 -0.24045695836515407 0.0
  outer loop
    vertex 69.18473537173575 118.3204920440968 0.0
    vertex 69.05919164706287 117.81370593252437 3.999999999999999
    vertex 69.05919164706287 117.81370593252437 0.0
  endloop
endfacet
facet normal 0.9706598019768711 -0.24045695836515407 0.0
  outer loop
    vertex 69.05919164706287 117.81370593252437 3.999999999999999
    vertex 69.18473537173575 118.3204920440968 0.0
    vertex 69.18473537173575 118.3204920440968 3.999999999999999
  endloop
endfacet
facet normal 0.018961656871244403 -0.9998202116224184 0.0
  outer loop
    vertex 71.27008143074269 119.57778256476578 3.999999999999999
    vertex 70.74807053023181 119.56788259328744 0.0
    vertex 71.27008143074269 119.57778256476578 0.0
  endloop
endfacet
facet normal 0.018961656871244403 -0.9998202116224184 0.0
  outer loop
    vertex 70.74807053023181 119.56788259328744 0.0
    vertex 71.27008143074269 119.57778256476578 3.999999999999999
    vertex 70.74807053023181 119.56788259328744 3.999999999999999
  endloop
endfacet
facet normal -0.8563888740465195 -0.5163313823595603 1.486654572075928e-18
  outer loop
    vertex 72.61001001351956 118.8376899059958 3.999999999999999
    vertex 72.76421652185573 118.58192250049517 0.0
    vertex 72.76421652185573 118.58192250049517 3.9999999999999996
  endloop
endfacet
facet normal -0.8563888740465195 -0.5163313823595603 1.486654572075928e-18
  outer loop
    vertex 72.76421652185573 118.58192250049517 0.0
    vertex 72.61001001351956 118.8376899059958 3.999999999999999
    vertex 72.61001001351956 118.8376899059958 0.0
  endloop
endfacet
facet normal 0.693571735449411 0.7203875677617516 0.0
  outer loop
    vertex 69.48333969652744 116.34290880761453 3.999999999999999
    vertex 69.85945748109785 115.98079169697588 0.0
    vertex 69.48333969652744 116.34290880761453 0.0
  endloop
endfacet
facet normal 0.693571735449411 0.7203875677617516 0.0
  outer loop
    vertex 69.85945748109785 115.98079169697588 0.0
    vertex 69.48333969652744 116.34290880761453 3.999999999999999
    vertex 69.85945748109785 115.98079169697588 3.999999999999999
  endloop
endfacet
facet normal -0.13052619222004638 0.9914448613738113 -7.114460497810822e-17
  outer loop
    vertex 70.34786343324667 120.19829908778566 4.996377567468008
    vertex 71.04667485502347 120.29029935680516 0.9999999999999994
    vertex 70.34786343324667 120.19829908778566 0.9999999999999994
  endloop
endfacet
facet normal -0.13052619222004638 0.9914448613738113 -7.114460497810822e-17
  outer loop
    vertex 71.04667485502347 120.29029935680516 0.9999999999999994
    vertex 70.34786343324667 120.19829908778566 4.996377567468008
    vertex 71.04667485502347 120.29029935680516 4.996377567468008
  endloop
endfacet
facet normal 0.9998202116224184 0.018961656871244403 0.0
  outer loop
    vertex 69.05919164706287 117.81370593252437 0.0
    vertex 69.06909161854122 117.2916950320135 3.999999999999999
    vertex 69.06909161854122 117.2916950320135 0.0
  endloop
endfacet
facet normal 0.9998202116224184 0.018961656871244403 0.0
  outer loop
    vertex 69.06909161854122 117.2916950320135 3.999999999999999
    vertex 69.05919164706287 117.81370593252437 0.0
    vertex 69.05919164706287 117.81370593252437 3.999999999999999
  endloop
endfacet
facet normal -0.8563888740465398 -0.5163313823595268 3.853148245698964e-19
  outer loop
    vertex 72.76421652185573 118.58192250049517 3.9999999999999996
    vertex 72.87958909057197 118.39056519084016 0.0
    vertex 72.87958909057197 118.39056519084016 3.999999999999999
  endloop
endfacet
facet normal -0.8563888740465398 -0.5163313823595268 3.853148245698964e-19
  outer loop
    vertex 72.87958909057197 118.39056519084016 0.0
    vertex 72.76421652185573 118.58192250049517 3.9999999999999996
    vertex 72.76421652185573 118.58192250049517 0.0
  endloop
endfacet
facet normal 0.8563888740465398 0.5163313823595268 0.0
  outer loop
    vertex 69.21376061947501 116.79003352277017 0.0
    vertex 69.32913318819126 116.59867621311517 3.999999999999999
    vertex 69.32913318819126 116.59867621311517 0.0
  endloop
endfacet
facet normal 0.8563888740465398 0.5163313823595268 0.0
  outer loop
    vertex 69.32913318819126 116.59867621311517 3.999999999999999
    vertex 69.21376061947501 116.79003352277017 0.0
    vertex 69.21376061947501 116.79003352277017 3.999999999999999
  endloop
endfacet
facet normal 0.382683432365076 0.9238795325112925 -4.687850511744692e-17
  outer loop
    vertex 71.74548627680029 120.19829908778566 4.996377567468008
    vertex 72.39667485502348 119.92856794702317 0.9999999999999994
    vertex 71.74548627680029 120.19829908778566 0.9999999999999994
  endloop
endfacet
facet normal 0.382683432365076 0.9238795325112925 -4.687850511744692e-17
  outer loop
    vertex 72.39667485502348 119.92856794702317 0.9999999999999994
    vertex 71.74548627680029 120.19829908778566 4.996377567468008
    vertex 72.39667485502348 119.92856794702317 4.996377567468008
  endloop
endfacet
facet normal -0.48348882926285225 -0.8753505309177786 -0.0
  outer loop
    vertex 72.23389222894913 119.19980701663445 3.999999999999999
    vertex 71.77686754231513 119.4522388400929 0.0
    vertex 72.23389222894913 119.19980701663445 0.0
  endloop
endfacet
facet normal -0.48348882926285225 -0.8753505309177786 -0.0
  outer loop
    vertex 71.77686754231513 119.4522388400929 0.0
    vertex 72.23389222894913 119.19980701663445 3.999999999999999
    vertex 71.77686754231513 119.4522388400929 3.999999999999999
  endloop
endfacet
facet normal 0.2770880665274528 -0.9608445261269265 0.0
  outer loop
    vertex 70.74807053023181 119.56788259328744 3.999999999999999
    vertex 70.2464090209885 119.42321359235365 0.0
    vertex 70.74807053023181 119.56788259328744 0.0
  endloop
endfacet
facet normal 0.2770880665274528 -0.9608445261269265 0.0
  outer loop
    vertex 70.2464090209885 119.42321359235365 0.0
    vertex 70.74807053023181 119.56788259328744 3.999999999999999
    vertex 70.2464090209885 119.42321359235365 3.999999999999999
  endloop
endfacet
facet normal 0.5163313823595459 -0.8563888740465282 0.0
  outer loop
    vertex 70.2464090209885 119.42321359235365 3.999999999999999
    vertex 69.79928430583286 119.15363451530122 0.0
    vertex 70.2464090209885 119.42321359235365 0.0
  endloop
endfacet
facet normal 0.5163313823595459 -0.8563888740465282 0.0
  outer loop
    vertex 69.79928430583286 119.15363451530122 0.0
    vertex 70.2464090209885 119.42321359235365 3.999999999999999
    vertex 69.79928430583286 119.15363451530122 3.999999999999999
  endloop
endfacet
facet normal 0.13052619222004638 -0.9914448613738113 7.114460497810822e-17
  outer loop
    vertex 71.7454862768003 114.98229962582468 4.996377567468008
    vertex 71.04667485502351 114.89029935680517 0.9999999999999998
    vertex 71.7454862768003 114.98229962582468 0.9999999999999998
  endloop
endfacet
facet normal 0.13052619222004638 -0.9914448613738113 7.114460497810822e-17
  outer loop
    vertex 71.04667485502351 114.89029935680517 0.9999999999999998
    vertex 71.7454862768003 114.98229962582468 4.996377567468008
    vertex 71.04667485502351 114.89029935680517 4.996377567468008
  endloop
endfacet
facet normal -0.693571735449411 -0.7203875677617516 -0.0
  outer loop
    vertex 72.61001001351956 118.8376899059958 3.999999999999999
    vertex 72.23389222894913 119.19980701663445 0.0
    vertex 72.61001001351956 118.8376899059958 0.0
  endloop
endfacet
facet normal -0.693571735449411 -0.7203875677617516 -0.0
  outer loop
    vertex 72.23389222894913 119.19980701663445 0.0
    vertex 72.61001001351956 118.8376899059958 3.999999999999999
    vertex 72.23389222894913 119.19980701663445 3.999999999999999
  endloop
endfacet
facet normal 0.8563888740465196 0.5163313823595603 0.0
  outer loop
    vertex 69.32913318819126 116.59867621311517 0.0
    vertex 69.48333969652744 116.34290880761453 3.999999999999999
    vertex 69.48333969652744 116.34290880761453 0.0
  endloop
endfacet
facet normal 0.8563888740465196 0.5163313823595603 0.0
  outer loop
    vertex 69.48333969652744 116.34290880761453 3.999999999999999
    vertex 69.32913318819126 116.59867621311517 0.0
    vertex 69.32913318819126 116.59867621311517 3.999999999999999
  endloop
endfacet
facet normal 0.9608445261269265 0.2770880665274528 0.0
  outer loop
    vertex 69.06909161854122 117.2916950320135 0.0
    vertex 69.21376061947501 116.79003352277017 3.999999999999999
    vertex 69.21376061947501 116.79003352277017 0.0
  endloop
endfacet
facet normal 0.9608445261269265 0.2770880665274528 0.0
  outer loop
    vertex 69.21376061947501 116.79003352277017 3.999999999999999
    vertex 69.06909161854122 117.2916950320135 0.0
    vertex 69.06909161854122 117.2916950320135 3.999999999999999
  endloop
endfacet
facet normal -0.7933533402912326 0.6087614290087239 -7.11446049781088e-17
  outer loop
    vertex 69.1374865458198 119.49948766600883 4.996377567468008
    vertex 68.70840626480549 118.94029935680516 0.9999999999999994
    vertex 68.70840626480549 118.94029935680516 4.996377567468008
  endloop
endfacet
facet normal -0.7933533402912326 0.6087614290087239 -7.11446049781088e-17
  outer loop
    vertex 68.70840626480549 118.94029935680516 0.9999999999999994
    vertex 69.1374865458198 119.49948766600883 4.996377567468008
    vertex 69.1374865458198 119.49948766600883 0.9999999999999994
  endloop
endfacet
endsolid Edge-to-Cloud-Uploader
